<?xml version="1.0" encoding="utf-8"?>
<!DOCTYPE svg PUBLIC "-//W3C//DTD SVG 1.0//EN" "http://www.w3.org/TR/2001/REC-SVG-20010904/DTD/svg10.dtd">
<svg version="1.0" xmlns="http://www.w3.org/2000/svg" width="200px" height="200px" viewBox="0 0 200 200" preserveAspectRatio="xMidYMid meet" overflow="visible">
 <g fill="#9d6fff">
  <path d="M35.29 155.64 c-2.27 -0.53 -3.69 -2.34 -3.69 -4.69 0 -1.31 0.37 -2.13 2.97 -6.52 3.57 -6.05 6.46 -11.04 9.67 -16.60 3.71 -6.48 10.16 -17.44 10.35 -17.64 0.08 -0.08 0.25 0.02 0.39 0.23 0.18 0.21 0.61 0.39 1.15 0.45 0.51 0.06 0.90 0.21 0.90 0.33 0 0.16 0.06 0.14 0.16 -0.02 0.08 -0.14 1.09 -0.27 2.71 -0.37 2.34 -0.12 2.60 -0.10 2.93 0.23 0.70 0.68 0.64 0.94 -0.70 3.22 l-1.31 2.23 -3.63 0.10 c-2.01 0.06 -3.71 0.18 -3.79 0.25 -0.10 0.08 -0.20 0.78 -0.23 1.54 -0.06 1.02 -0.02 1.43 0.18 1.54 0.16 0.10 1.41 0.18 2.79 0.18 2.15 0 2.48 0.04 2.38 0.29 -0.06 0.16 -1.15 2.07 -2.42 4.26 -2.23 3.77 -11.48 19.65 -12.46 21.37 -0.25 0.45 -0.47 0.90 -0.47 1.02 0 0.16 7.13 0.21 24.22 0.21 14.86 0 24.22 0.08 24.22 0.18 0 0.23 -4.90 7.64 -5.35 8.09 -0.27 0.27 -0.72 0.33 -2.38 0.33 l-2.03 0 0 -0.49 c0 -0.45 0.08 -0.49 0.90 -0.49 0.84 0 0.90 -0.02 0.76 -0.43 -0.06 -0.25 -0.18 -0.64 -0.23 -0.88 -0.08 -0.35 -0.23 -0.45 -0.74 -0.45 -0.37 0 -0.80 0.14 -0.98 0.31 -0.23 0.25 -0.53 0.29 -1.37 0.18 -1 -0.12 -1.07 -0.10 -1.07 0.27 0 0.35 -0.12 0.41 -0.92 0.41 -0.66 0 -1.04 -0.12 -1.37 -0.43 -0.45 -0.41 -0.45 -0.41 -0.74 -0.04 -0.16 0.20 -0.29 0.68 -0.29 1.07 0 0.64 -0.06 0.72 -0.61 0.84 -0.94 0.18 -1.54 0.14 -1.54 -0.10 0 -0.14 -0.21 -0.18 -0.63 -0.10 -1.39 0.29 -2.11 0.35 -2.11 0.18 0 -0.27 -0.70 -1.04 -0.96 -1.04 -0.12 0 -0.31 -0.18 -0.45 -0.39 -0.35 -0.55 -0.70 -0.49 -0.59 0.10 0.06 0.35 0.21 0.49 0.55 0.49 0.37 0 0.47 0.10 0.47 0.49 l0 0.49 -16.93 -0.02 c-9.34 -0.02 -17.29 -0.10 -17.70 -0.20z"/>
  <path d="M111.13 155.68 c0 -0.08 1.23 -2.01 2.73 -4.28 l2.75 -4.14 20.25 -0.04 c16.07 -0.04 20.23 -0.12 20.20 -0.29 -0.02 -0.14 0.14 -0.25 0.35 -0.25 0.31 0 0.39 0.14 0.39 0.68 l0 0.68 -14.43 0 c-7.93 0 -14.69 0.06 -15.02 0.12 -0.76 0.16 -0.84 0.47 -0.90 3.65 -0.04 2.13 -0.10 2.50 -0.47 3.03 -0.23 0.31 -0.43 0.68 -0.43 0.80 0 0.16 -2.25 0.21 -7.71 0.21 -4.24 0 -7.71 -0.08 -7.71 -0.18z"/>
  <path d="M65.82 141.99 c-3.09 -0.59 -5.33 -2.29 -6.76 -5.12 -0.90 -1.80 -1.21 -3.63 -0.90 -5.47 0.88 -5.08 5.31 -8.42 10.33 -7.75 0.72 0.08 1.43 0.16 1.56 0.18 0.14 0 2.44 -3.71 5.16 -8.24 2.70 -4.55 5.25 -8.83 5.68 -9.51 l0.76 -1.25 -0.59 -1.09 c-0.94 -1.78 -1.25 -3.16 -1.15 -5.12 0.08 -1.48 0.18 -1.89 0.80 -3.16 1.31 -2.64 3.34 -4.36 5.98 -5.06 3.28 -0.84 6.25 -0.08 8.73 2.25 0.92 0.86 1.45 1.54 1.93 2.58 l0.68 1.41 3.71 0.35 c5.14 0.47 6.35 0.39 8.50 -0.64 2.79 -1.35 3.42 -2.13 8.18 -10.10 2.25 -3.75 4.20 -6.97 4.36 -7.15 0.23 -0.29 0.18 -0.49 -0.41 -1.56 -1.60 -2.91 -1.68 -5.74 -0.29 -8.69 2.70 -5.74 10.31 -7.03 14.75 -2.52 3.87 3.95 3.73 9.82 -0.33 13.65 -2.36 2.25 -4.98 2.81 -8.96 1.97 -0.27 -0.06 -0.63 0 -0.80 0.14 -0.16 0.14 -0.92 1.31 -1.68 2.60 -3.69 6.33 -6.05 10.27 -6.82 11.46 -1.05 1.56 -2.64 3.07 -4.20 3.93 -0.63 0.33 -1.15 0.68 -1.15 0.76 0 0.08 0.43 0.74 0.96 1.46 1.05 1.46 3.18 4.94 6.60 10.78 l2.21 3.81 1.82 -0.06 c1.45 -0.04 2.07 0.04 3.09 0.37 6.72 2.25 8.63 10.63 3.55 15.72 -1.56 1.58 -3.14 2.27 -5.55 2.40 -3.01 0.16 -5.16 -0.63 -7.13 -2.58 -1.89 -1.91 -2.81 -4.06 -2.81 -6.64 0 -2.29 0.66 -4.18 2.05 -5.88 l0.64 -0.80 -1.66 -2.81 c-3.73 -6.33 -5.37 -9.06 -6.62 -10.94 -1.48 -2.27 -1.95 -2.58 -4.57 -3.03 -2.21 -0.39 -6.35 -0.74 -6.91 -0.61 -0.35 0.08 -0.68 0.49 -1.19 1.46 -1.76 3.34 -5.06 5.29 -8.46 5.04 -0.84 -0.08 -1.95 -0.18 -2.50 -0.25 l-1 -0.12 -1.86 3.09 c-1.02 1.72 -3.14 5.31 -4.75 7.99 -1.58 2.70 -3.22 5.43 -3.63 6.11 -0.43 0.68 -0.76 1.27 -0.76 1.29 0 0.04 0.35 0.66 0.78 1.41 2.29 3.93 1.52 8.61 -1.91 11.84 -0.88 0.84 -1.45 1.15 -3.26 1.91 -0.76 0.29 -3.07 0.41 -4.20 0.20z m5.53 -6.37 c0.49 -0.45 0.55 -0.61 0.41 -1.33 -0.06 -0.43 -0.23 -0.86 -0.35 -0.94 -0.45 -0.29 -1.93 -0.37 -6.76 -0.31 l-4.98 0.06 0.06 1.04 c0.06 0.70 0.21 1.17 0.49 1.50 l0.43 0.49 5.08 0 5.08 0 0.55 -0.51z"/>
  <path d="M150.92 136.09 c-0.16 -0.25 -1.66 -2.81 -3.36 -5.72 -1.70 -2.89 -5.29 -9 -7.97 -13.57 -5.92 -10.10 -7.25 -12.34 -8.89 -15.20 l-1.27 -2.23 0.66 -0.90 c0.35 -0.51 1.50 -2.19 2.56 -3.75 1.11 -1.64 2.07 -2.83 2.25 -2.83 0.20 0 1.11 1.39 2.50 3.81 1.21 2.09 2.95 5.14 3.91 6.74 0.94 1.62 2.34 4.02 3.11 5.37 1.39 2.40 3.20 5.47 6.52 11.13 0.92 1.56 2.81 4.80 4.20 7.23 1.39 2.42 2.62 4.51 2.71 4.65 0.16 0.18 0.08 0.23 -0.29 0.23 -0.61 0 -1.70 1.09 -1.70 1.70 0 0.25 -0.08 0.45 -0.20 0.45 -0.10 0 -0.20 0.14 -0.20 0.31 0 0.16 -0.12 0.41 -0.23 0.55 -0.29 0.27 -2.23 0.70 -3.18 0.70 l-0.64 0 0.12 0.88 c0.10 0.98 -0.16 1.17 -0.61 0.45z m-3.50 -21.50 c-0.16 -0.14 -0.57 -0.70 -0.92 -1.25 -0.35 -0.57 -0.68 -1.04 -0.74 -1.04 -0.10 0 0.10 2.23 0.25 2.77 0.14 0.49 1.52 0.57 1.60 0.10 0.04 -0.20 -0.06 -0.47 -0.20 -0.59z"/>
  <path d="M62.30 107.62 c0 -0.12 -1.04 -0.20 -2.68 -0.21 -1.48 0 -2.83 -0.06 -3.03 -0.14 -0.25 -0.12 -0.10 -0.49 1.04 -2.40 l1.35 -2.29 0.98 -0.23 c1.33 -0.31 3.52 0.08 3.52 0.63 0 0.27 0.16 0.35 0.66 0.35 1.43 0 1.86 0.20 1.99 0.90 0.18 0.90 -0.04 1.64 -0.47 1.64 -0.23 0 -0.41 0.23 -0.53 0.64 -0.12 0.35 -0.39 0.70 -0.63 0.82 -0.25 0.10 -0.45 0.25 -0.45 0.33 0 0.10 -0.39 0.16 -0.88 0.16 -0.49 0 -0.88 -0.08 -0.88 -0.20z"/>
  <path d="M61.13 98.93 c0 -0.10 1.93 -3.46 7.48 -12.89 2.56 -4.36 2.66 -4.49 3.20 -4.41 0.29 0.06 1.46 0.10 2.60 0.10 l2.05 0.02 0.18 -1.02 c0.10 -0.55 0.12 -1.31 0.04 -1.70 l-0.14 -0.70 -1.64 0 c-0.92 0 -1.66 -0.06 -1.66 -0.12 0 -0.10 2.73 -4.82 3.52 -6.05 0.25 -0.39 0.35 -0.41 5.16 -0.31 2.70 0.04 4.92 0.12 4.96 0.14 0.02 0.02 -0.20 0.47 -0.51 1 -0.31 0.53 -1.52 2.58 -2.68 4.57 -1.17 1.99 -2.66 4.53 -3.32 5.66 -0.66 1.13 -1.64 2.79 -2.19 3.71 -0.53 0.92 -2.36 4 -4.04 6.88 l-3.09 5.21 -0.61 -0.14 c-0.80 -0.18 -3.91 -0.18 -6.91 0 -1.33 0.08 -2.40 0.10 -2.40 0.06z"/>
  <path d="M80.16 66.37 c7.13 -12.30 15.80 -26.99 16.43 -27.81 0.68 -0.90 2.29 -1.64 3.50 -1.64 2.36 0 3.38 0.76 5.21 3.87 1.27 2.17 5.66 9.57 9.38 15.80 1.17 1.95 2.13 3.59 2.13 3.65 0 0.04 -0.47 0.86 -1.05 1.82 -0.57 0.94 -1.68 2.81 -2.46 4.14 -0.76 1.31 -1.48 2.32 -1.56 2.25 -0.20 -0.21 -8.07 -13.28 -9.84 -16.35 -0.86 -1.48 -1.45 -2.29 -1.62 -2.25 -0.16 0.04 -1.68 2.44 -3.38 5.33 -1.70 2.91 -4.12 7.03 -5.41 9.18 l-2.32 3.91 -4.53 0.06 c-4.28 0.04 -4.53 0.06 -4.73 0.43 -0.14 0.25 -0.41 0.39 -0.78 0.39 l-0.57 0 1.62 -2.77z"/>
 </g>
 <g fill="#9d6fff" stroke="#9d6fff" stroke-width="0.195">
  <path d="M69.24 155.66 c0.10 -0.16 -0.76 -0.31 -1.31 -0.21 -0.29 0.04 -0.16 -0.33 0.14 -0.45 0.23 -0.08 0.27 -0.20 0.10 -0.49 -0.10 -0.21 -0.18 -1.21 -0.18 -2.21 0.02 -1 0.08 -1.62 0.12 -1.39 0.10 0.53 0.55 0.70 0.84 0.33 0.27 -0.29 0.68 -0.39 0.49 -0.10 -0.06 0.10 0.04 0.31 0.20 0.47 0.25 0.27 0.25 0.31 -0.04 0.37 -0.29 0.06 -0.29 0.08 0.02 0.41 0.20 0.18 0.23 0.33 0.12 0.33 -0.12 0 -0.18 0.08 -0.10 0.18 0.06 0.10 -0.06 0.23 -0.23 0.27 -0.29 0.08 -0.29 0.10 0.04 0.12 0.21 0 0.51 0.20 0.64 0.41 0.14 0.21 0.41 0.39 0.64 0.39 0.21 0 0.33 0.10 0.27 0.20 -0.06 0.12 -0.04 0.20 0.08 0.20 0.10 0 0.23 0.18 0.31 0.37 0.12 0.41 0.68 0.35 0.68 -0.06 0 -0.12 0.18 -0.23 0.39 -0.25 0.21 -0.02 0.39 0.08 0.39 0.20 0 0.14 0.08 0.12 0.20 -0.06 0.16 -0.23 0.21 -0.25 0.37 -0.02 0.14 0.20 0.20 0.20 0.31 0.02 0.12 -0.18 0.21 -0.14 0.37 0.14 0.16 0.29 0.33 0.35 0.70 0.23 0.27 -0.08 0.37 -0.14 0.21 -0.16 -0.21 -0.02 -0.21 -0.08 -0.02 -0.31 0.20 -0.23 0.20 -0.29 -0.08 -0.29 -0.31 0 -0.08 -0.37 0.84 -1.33 0.25 -0.25 0.25 -0.35 -0.04 -0.86 -0.31 -0.55 -0.31 -0.61 0.02 -1.04 0.45 -0.63 0.76 -0.63 0.35 0 -0.41 0.63 -0.21 1.04 0.27 0.59 0.33 -0.29 0.37 -0.29 0.49 0.08 0.06 0.23 0.21 0.41 0.31 0.41 0.12 0 0.16 0.08 0.10 0.18 -0.08 0.10 0 0.23 0.12 0.27 0.14 0.06 0.08 0.12 -0.12 0.12 -0.35 0.02 -0.35 0.06 0.08 0.51 0.25 0.27 0.63 0.49 0.82 0.49 0.35 0 0.35 -0.02 0.08 -0.31 -0.37 -0.37 -0.41 -0.53 -0.06 -0.41 0.12 0.04 0.39 -0.06 0.59 -0.21 0.29 -0.25 0.39 -0.27 0.51 -0.06 0.21 0.35 0.31 0.35 0.68 0.04 0.27 -0.23 0.35 -0.21 0.61 0.10 0.27 0.35 0.27 0.35 0.29 0.02 0 -0.20 0.08 -0.31 0.18 -0.23 0.10 0.06 0.23 0.02 0.31 -0.10 0.06 -0.10 0.02 -0.20 -0.10 -0.20 -0.14 0 -0.12 -0.10 0.04 -0.27 0.21 -0.21 0.29 -0.21 0.55 0.06 0.31 0.35 0.64 0.41 0.90 0.18 0.21 -0.23 0.51 -0.20 0.37 0.04 -0.06 0.12 -0.04 0.20 0.08 0.20 0.10 0 0.23 -0.12 0.27 -0.23 0.08 -0.20 0.12 -0.20 0.12 0 0.02 0.14 0.27 0.23 0.61 0.23 0.43 0 0.55 0.08 0.47 0.29 -0.08 0.16 -0.31 0.29 -0.55 0.31 -0.21 0 -0.29 0.06 -0.16 0.12 0.12 0.04 0.20 0.18 0.12 0.27 -0.06 0.10 -0.02 0.18 0.10 0.18 0.10 0 0.16 0.27 0.12 0.59 -0.06 0.49 0 0.64 0.35 0.76 0.57 0.23 0.18 0.37 -1.23 0.47 -0.72 0.04 -0.47 0.08 0.70 0.10 1.39 0.04 1.84 -0.02 2.03 -0.25 0.16 -0.20 0.18 -0.29 0.04 -0.29 -0.14 0 -0.18 -0.14 -0.10 -0.33 0.08 -0.18 0.04 -0.27 -0.06 -0.21 -0.10 0.06 -0.37 -0.18 -0.59 -0.53 l-0.43 -0.64 0.45 -0.23 c0.37 -0.20 0.53 -0.20 0.88 0.06 0.25 0.18 0.33 0.33 0.21 0.43 -0.12 0.06 -0.21 0.31 -0.21 0.55 0 0.35 0.08 0.29 0.33 -0.25 0.41 -0.86 0.35 -0.80 0.78 -0.86 0.20 -0.04 0.35 -0.18 0.35 -0.33 0 -0.37 0.68 -1.74 0.88 -1.74 0.08 0 0.23 -0.23 0.35 -0.51 0.14 -0.27 0.31 -0.45 0.41 -0.39 0.10 0.06 0.27 0 0.39 -0.16 0.18 -0.21 0.18 -0.29 -0.02 -0.37 -0.20 -0.08 -0.20 -0.12 0 -0.12 0.12 -0.02 0.23 -0.12 0.23 -0.21 0 -0.12 0.21 -0.55 0.49 -0.98 0.49 -0.76 0.88 -1.02 0.88 -0.55 0 0.29 -4.38 6.89 -5.04 7.64 l-0.51 0.53 -8.36 0 c-5.55 0 -8.34 -0.06 -8.26 -0.20z"/>
  <path d="M125.88 155.66 c0.08 -0.12 -0.23 -0.20 -0.78 -0.20 -0.51 0 -0.86 -0.08 -0.78 -0.18 0.06 -0.10 0.39 -0.14 0.74 -0.10 0.55 0.10 0.68 0.02 1.11 -0.63 0.27 -0.39 0.49 -0.82 0.51 -0.94 0 -0.12 0.04 -0.25 0.06 -0.31 0.02 -0.06 0.04 -0.88 0.04 -1.86 0 -0.96 0.10 -2.21 0.20 -2.75 0.18 -0.92 0.25 -1.02 0.80 -1.13 0.33 -0.06 7.09 -0.12 15.02 -0.12 l14.41 0 -0.08 -0.41 c-0.04 -0.21 -1.45 -2.75 -3.11 -5.61 -1.68 -2.87 -3.05 -5.29 -3.07 -5.41 -0.02 -0.10 -0.20 -0.53 -0.39 -0.94 -0.35 -0.66 -0.35 -0.76 -0.08 -1.04 0.25 -0.25 0.41 -0.27 0.86 -0.08 0.43 0.18 0.84 0.18 1.80 -0.02 1.25 -0.25 1.62 -0.45 1.66 -0.90 0.04 -0.59 0.10 -0.66 0.27 -0.55 0.12 0.06 0.20 -0.08 0.20 -0.35 0 -0.27 0.14 -0.59 0.29 -0.72 0.18 -0.14 0.25 -0.39 0.20 -0.55 -0.06 -0.18 0 -0.23 0.18 -0.18 0.16 0.06 0.49 -0.08 0.74 -0.31 l0.47 -0.43 0.39 0.49 c0.23 0.27 1.39 2.17 2.56 4.20 1.19 2.05 3.50 6 5.12 8.79 1.64 2.79 3.11 5.55 3.28 6.13 0.76 2.64 -0.74 5.33 -3.42 6.07 -0.98 0.27 -39.38 0.27 -39.20 0z"/>
  <path d="M75.31 147.71 c0.43 -0.31 0.47 -0.31 1.27 0.02 l0.66 0.29 -1.13 -0.04 c-1 -0.02 -1.09 -0.06 -0.80 -0.27z"/>
  <path d="M59.61 136.19 c-0.25 -0.27 -0.49 -0.84 -0.53 -1.25 -0.12 -1.25 -0.27 -1.60 -0.61 -1.33 -0.49 0.41 -0.31 -0.16 0.23 -0.70 l0.49 -0.51 6.05 0.02 c6.74 0.02 7.07 0.08 7.01 1.07 -0.02 0.06 0.12 0.25 0.29 0.41 0.33 0.35 0.37 0.59 0.10 0.76 -0.12 0.08 -0.16 0.20 -0.10 0.29 0.06 0.10 0.02 0.37 -0.10 0.59 -0.18 0.31 -0.16 0.49 0.02 0.70 0.18 0.21 0.16 0.27 -0.10 0.27 -0.18 0 -0.31 -0.10 -0.31 -0.23 0 -0.12 -0.14 -0.08 -0.35 0.10 -0.31 0.29 -1.04 0.33 -6.02 0.33 l-5.64 0 -0.45 -0.53z"/>
  <path d="M57.91 121.15 l0.12 -0.45 -2.50 0 c-1.37 0 -2.60 -0.08 -2.73 -0.16 -0.12 -0.08 -0.25 -0.61 -0.27 -1.17 -0.04 -0.57 -0.12 -1.07 -0.21 -1.13 -0.25 -0.16 -0.18 -0.86 0.14 -1.17 0.16 -0.16 0.23 -0.41 0.18 -0.57 -0.08 -0.20 0.12 -0.29 0.74 -0.37 0.76 -0.10 7.77 -0.25 7.77 -0.18 0 0.10 -3.03 5.27 -3.18 5.43 -0.12 0.12 -0.14 0.04 -0.04 -0.23z"/>
  <path d="M147.38 116.25 c-0.04 -0.02 -0.45 -0.10 -0.92 -0.16 -0.47 -0.06 -0.92 -0.20 -1 -0.33 -0.18 -0.29 -0.39 -3.16 -0.31 -4.41 0.08 -1.25 0.35 -1.45 0.78 -0.55 0.39 0.84 2.07 3.40 2.30 3.55 0.10 0.06 0.14 0.21 0.08 0.35 -0.04 0.14 0.04 0.57 0.20 0.96 l0.29 0.70 -0.68 -0.02 c-0.37 -0.02 -0.70 -0.06 -0.74 -0.10z"/>
  <path d="M62.73 112.56 c-0.12 -0.04 -0.18 -0.18 -0.12 -0.29 0.06 -0.10 -0.06 -0.35 -0.27 -0.55 -0.29 -0.27 -0.43 -0.31 -0.61 -0.14 -0.18 0.18 -0.27 0.18 -0.37 0 -0.12 -0.18 -0.63 -0.21 -1.86 -0.12 -0.96 0.06 -1.62 0.18 -1.50 0.25 0.14 0.08 -0.08 0.18 -0.49 0.23 -0.45 0.06 -0.82 -0.02 -0.98 -0.18 -0.16 -0.14 -0.47 -0.25 -0.72 -0.25 -0.78 0 -1.31 -0.21 -1.43 -0.59 -0.06 -0.20 0.33 -1.09 1.02 -2.27 l1.11 -1.93 3.13 0.04 c1.99 0.02 3.16 0.12 3.20 0.23 0.04 0.12 0.20 0.21 0.35 0.21 0.18 0 0.23 -0.08 0.18 -0.20 -0.06 -0.10 0.06 -0.20 0.27 -0.20 0.43 0 1.05 -0.76 0.96 -1.19 -0.04 -0.14 0.12 -0.29 0.33 -0.33 0.86 -0.18 0.76 -1.11 -0.12 -1.29 -0.66 -0.14 -1.15 0.02 -1.15 0.37 0 0.35 -0.59 0.23 -0.90 -0.20 -0.20 -0.27 -0.21 -0.45 -0.04 -0.76 0.20 -0.35 0.18 -0.37 -0.08 -0.16 -0.21 0.16 -0.33 0.18 -0.39 0.04 -0.16 -0.51 -1.76 -0.53 -2.36 -0.02 -0.23 0.20 -0.37 0.20 -0.70 -0.02 -0.23 -0.14 -0.41 -0.29 -0.41 -0.35 0 -0.08 0.31 -0.63 0.68 -1.25 0.37 -0.63 0.96 -1.64 1.31 -2.27 0.43 -0.80 0.72 -1.13 1.02 -1.13 0.23 0 2.50 -0.06 5.04 -0.12 4.30 -0.10 4.63 -0.08 4.51 0.23 -0.21 0.57 -8.22 14.32 -8.32 14.28 -0.02 0 -0.16 -0.06 -0.29 -0.12z"/>
  <path d="M71.54 82.23 c-0.25 -0.10 -0.45 -0.25 -0.45 -0.33 0 -0.08 0.55 -1.07 1.23 -2.21 l1.21 -2.03 1.76 0.04 c0.96 0.04 1.80 0.12 1.86 0.18 0.16 0.14 0.12 3.83 -0.04 4.22 -0.14 0.29 -0.45 0.33 -2.64 0.31 -1.37 0 -2.70 -0.08 -2.93 -0.18z"/>
  <path d="M86.31 72.56 c-0.04 -0.04 -2.21 -0.10 -4.82 -0.12 -2.60 -0.02 -4.73 -0.10 -4.73 -0.14 0 -0.23 1.62 -2.99 2.17 -3.67 l0.61 -0.76 4.96 -0.10 c2.73 -0.06 4.94 -0.06 4.92 0 -0.25 0.53 -2.77 4.71 -2.89 4.79 -0.08 0.04 -0.18 0.06 -0.21 0z"/>
  <path d="M87.95 57.97 c0.04 -0.14 -0.02 -0.51 -0.16 -0.84 -0.29 -0.72 -0.18 -1.07 0.33 -1.07 0.27 0 0.35 0.10 0.27 0.31 -0.06 0.18 -0.12 0.64 -0.12 1.07 0 0.41 -0.10 0.76 -0.21 0.76 -0.12 0 -0.18 -0.12 -0.12 -0.23z"/>
 </g>
</svg>