<svg xmlns="http://www.w3.org/2000/svg" viewBox="0 0 389 74" width="389" height="74" aria-label="Deep Variance">
  <path d="M16.78125 52.59375Q12.75 52.59375 9.53125 50.515625Q6.3125 48.4375 4.421875 44.421875Q2.53125 40.40625 2.53125 34.59375Q2.53125 28.625 4.46875 24.625Q6.40625 20.625 9.625 18.625Q12.84375 16.625 16.71875 16.625Q19.6875 16.625 21.65625 17.625Q23.625 18.625 24.828125 20.09375Q26.03125 21.5625 26.65625 22.9375H26.96875V5.4375H36.34375V52.0H27.125V46.40625H26.65625Q26.0 47.8125 24.78125 49.234375Q23.5625 50.65625 21.59375 51.625Q19.625 52.59375 16.78125 52.59375ZM19.65625 45.0625Q23.21875 45.0625 25.1875 42.1875Q27.15625 39.3125 27.15625 34.5625Q27.15625 29.8125 25.203125 26.96875Q23.25 24.125 19.65625 24.125Q15.96875 24.125 14.0625 27.046875Q12.15625 29.96875 12.15625 34.5625Q12.15625 39.1875 14.078125 42.125Q16.0 45.0625 19.65625 45.0625Z M57.565 52.6875Q52.22125 52.6875 48.34625 50.5Q44.47125 48.3125 42.393125 44.28125Q40.315 40.25 40.315 34.71875Q40.315 29.3125 42.393125 25.25Q44.47125 21.1875 48.236875 18.90625Q52.0025 16.625 57.09625 16.625Q61.65875 16.625 65.3775 18.5625Q69.09625 20.5 71.299375 24.4375Q73.5025 28.375 73.5025 34.34375V36.96875H49.59625Q49.7525 41.25 51.97125 43.4375Q54.19 45.625 57.72125 45.625Q60.19 45.625 61.955625 44.578125Q63.72125 43.53125 64.47125 41.5L72.97125 43.09375Q71.69 47.4375 67.674375 50.0625Q63.65875 52.6875 57.565 52.6875ZM49.65875 31.09375H64.47125Q64.1275 27.6875 62.28375 25.6875Q60.44 23.6875 57.19 23.6875Q53.815 23.6875 51.8775 25.765625Q49.94 27.84375 49.65875 31.09375Z M93.13 52.6875Q87.78625 52.6875 83.91125 50.5Q80.03625 48.3125 77.958125 44.28125Q75.88 40.25 75.88 34.71875Q75.88 29.3125 77.958125 25.25Q80.03625 21.1875 83.801875 18.90625Q87.5675 16.625 92.66125 16.625Q97.22375 16.625 100.9425 18.5625Q104.66125 20.5 106.864375 24.4375Q109.0675 28.375 109.0675 34.34375V36.96875H85.16125Q85.3175 41.25 87.53625 43.4375Q89.755 45.625 93.28625 45.625Q95.755 45.625 97.520625 44.578125Q99.28625 43.53125 100.03625 41.5L108.53625 43.09375Q107.255 47.4375 103.239375 50.0625Q99.22375 52.6875 93.13 52.6875ZM85.22375 31.09375H100.03625Q99.6925 27.6875 97.84875 25.6875Q96.005 23.6875 92.755 23.6875Q89.38 23.6875 87.4425 25.765625Q85.505 27.84375 85.22375 31.09375Z M112.91375 65.0625V17.0625H122.1325V22.9375H122.57Q123.195 21.5625 124.398125 20.09375Q125.60125 18.625 127.585625 17.625Q129.57 16.625 132.53875 16.625Q136.41375 16.625 139.6325 18.625Q142.85125 20.625 144.773125 24.625Q146.695 28.625 146.695 34.59375Q146.695 40.40625 144.82 44.421875Q142.945 48.4375 139.72625 50.515625Q136.5075 52.59375 132.47625 52.59375Q129.6325 52.59375 127.66375 51.625Q125.695 50.65625 124.460625 49.234375Q123.22625 47.8125 122.57 46.40625H122.28875V65.0625ZM129.60125 45.0625Q133.2575 45.0625 135.179375 42.125Q137.10125 39.1875 137.10125 34.5625Q137.10125 29.96875 135.195 27.046875Q133.28875 24.125 129.60125 24.125Q125.97625 24.125 124.023125 26.96875Q122.07 29.8125 122.07 34.5625Q122.07 39.3125 124.03875 42.1875Q126.0075 45.0625 129.60125 45.0625Z M162.1975 52.0 148.85375 17.0625H153.47875L161.54125 39.03125Q162.41625 41.34375 163.10375 43.671875Q163.79125 46.0 164.51 48.28125Q165.1975 46.0 165.885 43.671875Q166.5725 41.34375 167.4475 39.03125L175.51 17.0625H180.10375L166.76 52.0Z M197.575 52.75Q193.325 52.75 190.10625 50.484375Q186.8875 48.21875 185.075 44.140625Q183.2625 40.0625 183.2625 34.625Q183.2625 29.21875 185.075 25.171875Q186.8875 21.125 190.1375 18.859375Q193.3875 16.59375 197.66875 16.59375Q200.85625 16.59375 202.95 17.734375Q205.04375 18.875 206.340625 20.53125Q207.6375 22.1875 208.325 23.78125H208.7V17.0625H212.8875V52.0H208.7V45.46875H208.325Q207.60625 47.09375 206.29375 48.78125Q204.98125 50.46875 202.85625 51.609375Q200.73125 52.75 197.575 52.75ZM198.2 48.90625Q201.575 48.90625 203.91875 47.0625Q206.2625 45.21875 207.5125 41.984375Q208.7625 38.75 208.7625 34.59375Q208.7625 30.4375 207.528125 27.25Q206.29375 24.0625 203.934375 22.25Q201.575 20.4375 198.2 20.4375Q194.7625 20.4375 192.3875 22.3125Q190.0125 24.1875 188.778125 27.390625Q187.54375 30.59375 187.54375 34.59375Q187.54375 38.625 188.778125 41.859375Q190.0125 45.09375 192.403125 47.0Q194.79375 48.90625 198.2 48.90625Z M221.04625 52.0V17.0625H225.17125V22.5H225.48375Q226.515 19.8125 229.124375 18.203125Q231.73375 16.59375 234.98375 16.59375Q235.48375 16.59375 236.10875 16.609375Q236.73375 16.625 237.14 16.65625V20.90625Q236.92125 20.875 236.2025 20.78125Q235.48375 20.6875 234.64 20.6875Q230.5775 20.6875 227.936875 23.203125Q225.29625 25.71875 225.29625 29.59375V52.0Z M241.48624999999998 52.0V17.0625H245.73624999999998V52.0ZM243.64249999999998 10.59375Q242.36124999999998 10.59375 241.45499999999998 9.71875Q240.54874999999998 8.84375 240.54874999999998 7.625Q240.54874999999998 6.40625 241.45499999999998 5.53125Q242.36124999999998 4.65625 243.64249999999998 4.65625Q244.92374999999998 4.65625 245.82999999999998 5.53125Q246.73624999999998 6.40625 246.73624999999998 7.625Q246.73624999999998 8.84375 245.82999999999998 9.71875Q244.92374999999998 10.59375 243.64249999999998 10.59375Z M266.36375 52.75Q262.11375 52.75 258.895 50.484375Q255.67624999999998 48.21875 253.86374999999998 44.140625Q252.05124999999998 40.0625 252.05124999999998 34.625Q252.05124999999998 29.21875 253.86374999999998 25.171875Q255.67624999999998 21.125 258.92625 18.859375Q262.17625 16.59375 266.4575 16.59375Q269.645 16.59375 271.73875 17.734375Q273.8325 18.875 275.129375 20.53125Q276.42625 22.1875 277.11375 23.78125H277.48875V17.0625H281.67625V52.0H277.48875V45.46875H277.11375Q276.395 47.09375 275.0825 48.78125Q273.77 50.46875 271.645 51.609375Q269.52 52.75 266.36375 52.75ZM266.98875 48.90625Q270.36375 48.90625 272.7075 47.0625Q275.05125 45.21875 276.30125 41.984375Q277.55125 38.75 277.55125 34.59375Q277.55125 30.4375 276.316875 27.25Q275.0825 24.0625 272.723125 22.25Q270.36375 20.4375 266.98875 20.4375Q263.55125 20.4375 261.17625 22.3125Q258.80125 24.1875 257.566875 27.390625Q256.3325 30.59375 256.3325 34.59375Q256.3325 38.625 257.566875 41.859375Q258.80125 45.09375 261.191875 47.0Q263.5825 48.90625 266.98875 48.90625Z M294.085 30.21875V52.0H289.835V17.0625H293.92875L293.96 23.5Q295.55375 19.875 298.42875 18.234375Q301.30375 16.59375 304.86625 16.59375Q310.17875 16.59375 313.49125 19.890625Q316.80375 23.1875 316.80375 29.40625V52.0H312.585V29.71875Q312.585 25.4375 310.17875 22.953125Q307.7725 20.46875 303.74125 20.46875Q299.61625 20.46875 296.850625 23.09375Q294.085 25.71875 294.085 30.21875Z M338.55625 52.65625Q333.99375 52.65625 330.525 50.375Q327.05625 48.09375 325.0875 44.046875Q323.11875 40.0 323.11875 34.6875Q323.11875 29.3125 325.0875 25.25Q327.05625 21.1875 330.525 18.890625Q333.99375 16.59375 338.55625 16.59375Q342.0875 16.59375 344.8375 17.9375Q347.5875 19.28125 349.4 21.3125Q351.2125 23.34375 351.9 25.5L347.86875 26.75Q347.4625 25.4375 346.290625 23.96875Q345.11875 22.5 343.165625 21.46875Q341.2125 20.4375 338.55625 20.4375Q334.99375 20.4375 332.509375 22.359375Q330.025 24.28125 328.7125 27.515625Q327.4 30.75 327.4 34.6875Q327.4 38.5625 328.7125 41.78125Q330.025 45.0 332.509375 46.921875Q334.99375 48.84375 338.55625 48.84375Q341.275 48.84375 343.24375 47.78125Q345.2125 46.71875 346.43125 45.203125Q347.65 43.6875 348.025 42.34375L352.025 43.59375Q351.36875 45.75 349.540625 47.84375Q347.7125 49.9375 344.915625 51.296875Q342.11875 52.65625 338.55625 52.65625Z M372.30875 52.75Q367.4025 52.75 363.824375 50.453125Q360.24625 48.15625 358.293125 44.09375Q356.34 40.03125 356.34 34.75Q356.34 29.46875 358.261875 25.375Q360.18375 21.28125 363.636875 18.9375Q367.09 16.59375 371.6525 16.59375Q375.465 16.59375 378.87125 18.46875Q382.2775 20.34375 384.4025 24.1875Q386.5275 28.03125 386.5275 33.96875V35.8125H360.62125Q360.74625 41.78125 363.9025 45.359375Q367.05875 48.9375 372.34 48.9375Q375.99625 48.9375 378.34 47.25Q380.68375 45.5625 381.6525 43.25L385.68375 44.53125Q384.49625 47.8125 381.043125 50.28125Q377.59 52.75 372.30875 52.75ZM360.62125 32.15625H382.24625Q381.9025 27.0625 379.12125 23.734375Q376.34 20.40625 371.6525 20.40625Q368.49625 20.40625 366.09 22.0Q363.68375 23.59375 362.24625 26.265625Q360.80875 28.9375 360.62125 32.15625Z" fill="white"/>
</svg>